<svg width="28" height="28" viewBox="0 0 28 28" fill="none" xmlns="http://www.w3.org/2000/svg">
<path d="M5.14645 13.6464C4.95118 13.8417 4.95118 14.1583 5.14645 14.3536L8.32843 17.5355C8.52369 17.7308 8.84027 17.7308 9.03553 17.5355C9.2308 17.3403 9.2308 17.0237 9.03553 16.8284L6.20711 14L9.03553 11.1716C9.2308 10.9763 9.2308 10.6597 9.03553 10.4645C8.84027 10.2692 8.52369 10.2692 8.32843 10.4645L5.14645 13.6464ZM22.8536 14.3536C23.0488 14.1583 23.0488 13.8417 22.8536 13.6464L19.6716 10.4645C19.4763 10.2692 19.1597 10.2692 18.9645 10.4645C18.7692 10.6597 18.7692 10.9763 18.9645 11.1716L21.7929 14L18.9645 16.8284C18.7692 17.0237 18.7692 17.3403 18.9645 17.5355C19.1597 17.7308 19.4763 17.7308 19.6716 17.5355L22.8536 14.3536ZM5.5 14.5L22.5 14.5V13.5L5.5 13.5V14.5Z" fill="black"/>
<rect x="2.5" y="2.5" width="23" height="23" rx="11.5" stroke="white" stroke-width="5"/>
</svg>
